<?xml version="1.0" encoding="UTF-8"?>
<svg width="15px" height="27px" viewBox="0 0 15 27" version="1.1" xmlns="http://www.w3.org/2000/svg" xmlns:xlink="http://www.w3.org/1999/xlink">
    <title>chevron-left</title>
    <g id="Page-1" stroke="none" stroke-width="1" fill="none" fill-rule="evenodd">
        <g id="chevron-left" fill="#4A5568" fill-rule="nonzero">
            <path d="M1.2114776,27 C0.897758823,27.0014233 0.596674098,26.8792 0.376224105,26.6609092 C-0.0846677964,26.2096168 -0.0846677964,25.4785222 0.376224105,25.0272298 L12.1485706,13.5144133 L0.376224105,2.0015968 C0.0600047292,1.7134366 -0.070162443,1.2794557 0.0367872597,0.869905599 C0.143736962,0.460355499 0.470745999,0.140555799 0.889528497,0.0359637991 C1.308311,-0.0686282009 1.75207481,0.0586692991 2.0467311,0.367917399 L14.6543311,12.6975736 C15.115223,13.148866 15.115223,13.8799606 14.6543311,14.331253 L2.0467311,26.6609092 C1.82628111,26.8792 1.52519638,27.0014233 1.2114776,27 L1.2114776,27 Z" id="Path" transform="translate(7.500000, 13.499994) rotate(-180.000000) translate(-7.500000, -13.499994) "></path>
        </g>
    </g>
</svg>