<?xml version="1.0" encoding="UTF-8"?>
<svg width="27px" height="15px" viewBox="0 0 27 15" version="1.1" xmlns="http://www.w3.org/2000/svg" xmlns:xlink="http://www.w3.org/1999/xlink">
    <title>chevron-down</title>
    <g id="Page-1" stroke="none" stroke-width="1" fill="none" fill-rule="evenodd">
        <g id="chevron-down" fill="#4A5568" fill-rule="nonzero">
            <path d="M7.21147136,21.0000063 C6.89775257,21.0014296 6.59666786,20.8792063 6.37621784,20.6609155 C5.91532595,20.2096231 5.91532595,19.4785285 6.37621784,19.0272361 L18.1485643,7.51441955 L6.37621784,-3.99839695 C6.05999849,-4.28655715 5.92983131,-4.72053805 6.03678101,-5.13008815 C6.14373071,-5.53963825 6.47073974,-5.85943795 6.88952225,-5.96402995 C7.30830476,-6.06862195 7.75206857,-5.94132445 8.04672485,-5.63207635 L20.6543248,6.69757985 C21.1152167,7.14887225 21.1152167,7.87996685 20.6543248,8.33125925 L8.04672485,20.6609155 C7.82627486,20.8792063 7.52519012,21.0014296 7.21147136,21.0000063 L7.21147136,21.0000063 Z" id="Path" transform="translate(13.499994, 7.500000) rotate(90.000000) translate(-13.499994, -7.500000) "></path>
        </g>
    </g>
</svg>