<?xml version="1.0" encoding="UTF-8"?>
<svg width="27px" height="15px" viewBox="0 0 27 15" version="1.1" xmlns="http://www.w3.org/2000/svg" xmlns:xlink="http://www.w3.org/1999/xlink">
    <title>chevron-up</title>
    <g id="Page-1" stroke="none" stroke-width="1" fill="none" fill-rule="evenodd">
        <g id="chevron-up" fill="#4A5568" fill-rule="nonzero">
            <path d="M7.21148385,21.0000063 C6.89776506,21.0014296 6.59668035,20.8792063 6.37623033,20.6609155 C5.91533844,20.2096231 5.91533844,19.4785285 6.37623033,19.0272361 L18.1485768,7.51441955 L6.37623033,-3.99839695 C6.06001098,-4.28655715 5.9298438,-4.72053805 6.0367935,-5.13008815 C6.1437432,-5.53963825 6.47075223,-5.85943795 6.88953474,-5.96402995 C7.30831725,-6.06862195 7.75208106,-5.94132445 8.04673734,-5.63207635 L20.6543373,6.69757985 C21.1152292,7.14887225 21.1152292,7.87996685 20.6543373,8.33125925 L8.04673734,20.6609155 C7.82628735,20.8792063 7.52520261,21.0014296 7.21148385,21.0000063 L7.21148385,21.0000063 Z" id="Path" transform="translate(13.500006, 7.500000) rotate(-90.000000) translate(-13.500006, -7.500000) "></path>
        </g>
    </g>
</svg>