<?xml version="1.0" encoding="UTF-8"?>
<svg width="35px" height="30px" viewBox="0 0 35 30" version="1.1" xmlns="http://www.w3.org/2000/svg" xmlns:xlink="http://www.w3.org/1999/xlink">
    <!-- Generator: Sketch 59.1 (86144) - https://sketch.com -->
    <title>Path</title>
    <desc>Created with Sketch.</desc>
    <g id="Page-1" stroke="none" stroke-width="1" fill="none" fill-rule="evenodd">
        <g id="Home-page" transform="translate(-970.000000, -35.000000)" fill="#F56565" fill-rule="nonzero">
            <g id="heart" transform="translate(970.000000, 35.000000)">
                <path d="M34.3528027,8.77152282 L34.3528027,11.5196144 C34.3259869,11.5803887 34.3052745,11.6436766 34.2909707,11.7085457 C34.1532375,12.8048918 33.8400786,13.8719517 33.3634898,14.8688511 C32.3132988,17.0404064 30.9059486,19.0202184 29.200131,20.7257213 C25.72036,24.346332 21.7150165,27.2833549 17.4520394,29.8940419 C17.3012427,30.0103259 17.0910039,30.0103259 16.9402073,29.8940419 C13.5137898,27.8477561 10.2927645,25.4757011 7.32188671,22.8108358 C5.19027994,20.933243 3.33625611,18.7623118 1.81539816,16.3631259 C0.125080254,13.7010031 -0.414053668,10.467439 0.321123347,7.40091213 C1.88066533,0.46541595 10.5165432,-2.36855352 15.8959325,2.27915641 C16.3562379,2.67419458 16.7615814,3.13449992 17.2218867,3.58793503 C17.2501815,3.54041772 17.2811472,3.4945426 17.3146348,3.45053045 C19.719215,0.760835797 22.690589,-0.441454279 26.2459325,0.156255644 C30.1447875,0.8089274 32.7005127,3.13793503 33.9440241,6.88564496 C34.1148745,7.50627189 34.2513415,8.13585526 34.3528027,8.77152282 Z" id="Path"></path>
            </g>
        </g>
    </g>
</svg>